<mxfile host="app.diagrams.net" modified="2022-12-02T15:56:57.107Z" agent="5.0 (Windows NT 10.0; Win64; x64) AppleWebKit/537.36 (KHTML, like Gecko) Chrome/107.0.0.0 Safari/537.36" version="20.6.0" etag="I0pF6nE0iAlO-NOb5WHe" type="github">
  <diagram id="l-cni0ldiVPDse-6YGtS" name="Страница 1">
    <mxGraphModel dx="1422" dy="754" grid="1" gridSize="10" guides="1" tooltips="1" connect="1" arrows="1" fold="1" page="1" pageScale="1" pageWidth="827" pageHeight="1169" math="0" shadow="0">
      <root>
        <mxCell id="0" />
        <mxCell id="1" parent="0" />
        <mxCell id="m9QWn2Sl_nBxajeAfVME-5" value="" style="edgeStyle=orthogonalEdgeStyle;rounded=0;orthogonalLoop=1;jettySize=auto;html=1;" edge="1" parent="1" source="m9QWn2Sl_nBxajeAfVME-1" target="m9QWn2Sl_nBxajeAfVME-2">
          <mxGeometry relative="1" as="geometry" />
        </mxCell>
        <mxCell id="m9QWn2Sl_nBxajeAfVME-1" value="Start" style="ellipse;whiteSpace=wrap;html=1;" vertex="1" parent="1">
          <mxGeometry x="330" y="40" width="120" height="80" as="geometry" />
        </mxCell>
        <mxCell id="m9QWn2Sl_nBxajeAfVME-6" value="" style="edgeStyle=orthogonalEdgeStyle;rounded=0;orthogonalLoop=1;jettySize=auto;html=1;" edge="1" parent="1" source="m9QWn2Sl_nBxajeAfVME-2" target="m9QWn2Sl_nBxajeAfVME-3">
          <mxGeometry relative="1" as="geometry" />
        </mxCell>
        <mxCell id="m9QWn2Sl_nBxajeAfVME-2" value="a = 5" style="rounded=0;whiteSpace=wrap;html=1;" vertex="1" parent="1">
          <mxGeometry x="330" y="170" width="120" height="60" as="geometry" />
        </mxCell>
        <mxCell id="m9QWn2Sl_nBxajeAfVME-7" value="" style="edgeStyle=orthogonalEdgeStyle;rounded=0;orthogonalLoop=1;jettySize=auto;html=1;" edge="1" parent="1" source="m9QWn2Sl_nBxajeAfVME-3" target="m9QWn2Sl_nBxajeAfVME-4">
          <mxGeometry relative="1" as="geometry" />
        </mxCell>
        <mxCell id="m9QWn2Sl_nBxajeAfVME-3" value="условие" style="rhombus;whiteSpace=wrap;html=1;" vertex="1" parent="1">
          <mxGeometry x="350" y="280" width="80" height="80" as="geometry" />
        </mxCell>
        <mxCell id="m9QWn2Sl_nBxajeAfVME-4" value="print" style="shape=document;whiteSpace=wrap;html=1;boundedLbl=1;" vertex="1" parent="1">
          <mxGeometry x="330" y="410" width="120" height="80" as="geometry" />
        </mxCell>
      </root>
    </mxGraphModel>
  </diagram>
</mxfile>
